<?xml version="1.0" encoding="utf-8"?>
<!-- Generator: Adobe Illustrator 15.0.0, SVG Export Plug-In . SVG Version: 6.00 Build 0)  -->
<!DOCTYPE svg PUBLIC "-//W3C//DTD SVG 1.1//EN" "http://www.w3.org/Graphics/SVG/1.1/DTD/svg11.dtd">
<svg version="1.1" id="Capa_1" xmlns="http://www.w3.org/2000/svg" xmlns:xlink="http://www.w3.org/1999/xlink" x="0px" y="0px"
	 width="490.4px" height="294.4px" viewBox="0 0 490.4 294.4" enable-background="new 0 0 490.4 294.4" xml:space="preserve">
<g>
	<g>
		<defs>
			<rect id="SVGID_1_" x="-17.737" y="-8.456" width="150.99" height="150.99"/>
		</defs>
		<clipPath id="SVGID_2_">
			<use xlink:href="#SVGID_1_"  overflow="visible"/>
		</clipPath>
		<path clip-path="url(#SVGID_2_)" fill="#4A0E12" d="M43.376,36.872c-0.481-0.602,0.23-1.933,1.578-3.23
			c2.048-1.97,16.109-16.108,21.723-21.723c1.415-1.413,6.185-4.28,10.867,2.212c5.671,7.879,0.563,11.748,0,11.97
			c-7.485,2.951-31.025,10.675-31.025,10.675S44.012,37.661,43.376,36.872"/>
		<path clip-path="url(#SVGID_2_)" fill="#4A0E12" d="M59.175,41.994c-25.024,0-45.32,17.856-45.32,39.888
			c0,22.032,20.296,39.888,45.32,39.888c25.021,0,45.312-17.856,45.312-39.888C104.487,59.85,84.197,41.994,59.175,41.994
			 M59.175,113.089c-11.389,0-20.626-13.974-20.626-31.208c0-17.232,9.237-31.207,20.626-31.207
			c11.381,0,20.615,13.975,20.615,31.207C79.791,99.115,70.556,113.089,59.175,113.089"/>
		<path clip-path="url(#SVGID_2_)" fill="#FFFFFF" d="M42.05,36.065c-0.482-0.603,0.23-1.933,1.578-3.23
			c2.047-1.971,16.108-16.107,21.723-21.723c1.414-1.413,6.184-4.28,10.867,2.211c5.67,7.879,0.563,11.748,0,11.97
			c-7.486,2.951-31.026,10.675-31.026,10.675S42.685,36.854,42.05,36.065"/>
		<path clip-path="url(#SVGID_2_)" fill="#FFFFFF" d="M57.848,41.188c-25.024,0-45.321,17.855-45.321,39.887
			c0,22.033,20.297,39.889,45.321,39.889c25.021,0,45.312-17.856,45.312-39.889C103.16,59.043,82.869,41.188,57.848,41.188
			 M57.848,112.282c-11.39,0-20.626-13.974-20.626-31.208c0-17.232,9.236-31.207,20.626-31.207
			c11.382,0,20.616,13.975,20.616,31.207C78.464,98.308,69.23,112.282,57.848,112.282"/>
	</g>
	<g>
		<path fill="#FFFFFF" d="M144.737,89.288H135.6l8.234-49.294h9.137L144.737,89.288z"/>
		<path fill="#FFFFFF" d="M192.731,89.288h-7.042L168.86,52.236l-6.175,37.052h-7.114l8.234-49.294h9.137l15.348,33.838l5.67-33.838
			h7.042L192.731,89.288z"/>
		<path fill="#FFFFFF" d="M239.281,47.722H226.75l-6.969,41.566h-9.064l6.97-41.566h-12.531l1.3-7.729h34.127L239.281,47.722z"/>
		<path fill="#FFFFFF" d="M276.117,89.288h-9.426l-5.236-20.223h-11.52l-3.395,20.223h-8.813l8.234-49.294h18.563
			c3.707,0,6.645,0.343,8.811,1.029s4.111,2.197,5.832,4.532c1.721,2.335,2.582,5.008,2.582,8.017c0,3.227-0.951,6.218-2.852,8.974
			c-1.902,2.757-4.84,4.581-8.813,5.471L276.117,89.288z M251.126,61.878h12.242c3.756,0,6.229-0.836,7.422-2.51
			c1.191-1.673,1.787-3.437,1.787-5.291c0-1.589-0.416-2.949-1.246-4.081c-0.83-1.131-1.813-1.883-2.943-2.257
			c-1.133-0.373-2.83-0.56-5.092-0.56h-9.715L251.126,61.878z"/>
		<path fill="#FFFFFF" d="M324.183,89.288h-9.859L312.3,77.371h-17.875l-5.49,11.917h-8.342l23.619-49.294h10.941L324.183,89.288z
			 M311.47,70.509l-3.863-21.884l-10.148,21.884H311.47z"/>
		<path fill="#FFFFFF" d="M366.724,89.288h-7.043l-16.828-37.052l-6.176,37.052h-7.113l8.232-49.294h9.137l15.348,33.838
			l5.67-33.838h7.043L366.724,89.288z"/>
		<path fill="#FFFFFF" d="M409.626,89.288h-32.033l8.234-49.294h31.166l-1.301,7.729h-22.318l-2.131,12.784h18.49l-1.229,7.295
			h-18.488l-2.313,13.759h23.221L409.626,89.288z"/>
		<path fill="#FFFFFF" d="M452.962,47.722h-12.531l-6.971,41.566h-9.064l6.971-41.566h-12.531l1.299-7.729h34.127L452.962,47.722z"
			/>
	</g>
</g>
<g>
	<path fill="#9C9B9B" d="M43.747,191.639c-0.514-0.646,0.248-2.068,1.689-3.455c2.189-2.108,17.23-17.23,23.233-23.235
		c1.511-1.512,6.613-4.577,11.62,2.367c6.066,8.424,0.604,12.562,0,12.802c-8.005,3.154-33.182,11.416-33.182,11.416
		S44.428,192.479,43.747,191.639"/>
	<path fill="#9C9B9B" d="M60.644,191.537c-26.764,0-48.47,19.097-48.47,42.66c0,23.564,21.707,42.661,48.47,42.661
		c26.761,0,48.461-19.096,48.461-42.661C109.105,210.634,87.405,191.537,60.644,191.537 M60.644,267.574
		c-12.18,0-22.06-14.944-22.06-33.377c0-18.432,9.879-33.377,22.06-33.377c12.172,0,22.05,14.946,22.05,33.377
		C82.694,252.63,72.816,267.574,60.644,267.574"/>
	<path fill="#9C9B9B" d="M42.329,190.776c-0.517-0.647,0.247-2.07,1.687-3.456c2.191-2.109,17.23-17.228,23.234-23.234
		c1.513-1.513,6.613-4.578,11.622,2.365c6.065,8.429,0.604,12.564,0,12.803c-8.007,3.158-33.183,11.416-33.183,11.416
		S43.007,191.619,42.329,190.776"/>
	<path fill="#9C9B9B" d="M59.225,191.537c-26.765,0-48.471,19.097-48.471,42.66c0,23.566,21.707,42.662,48.471,42.662
		c26.76,0,48.461-19.096,48.461-42.662C107.686,210.633,85.985,191.537,59.225,191.537 M59.225,267.574
		c-12.182,0-22.059-14.944-22.059-33.377c0-18.429,9.877-33.377,22.059-33.377c12.174,0,22.05,14.948,22.05,33.377
		C81.274,252.63,71.399,267.574,59.225,267.574"/>
	<g>
		<path fill="#9C9B9B" d="M152.154,257.992h-9.771l8.805-52.721h9.772L152.154,257.992z"/>
		<path fill="#9C9B9B" d="M203.485,257.992h-7.532l-17.999-39.627l-6.604,39.627h-7.609l8.805-52.721h9.772l16.415,36.19
			l6.064-36.19h7.532L203.485,257.992z"/>
		<path fill="#9C9B9B" d="M253.271,213.537h-13.402l-7.455,44.455h-9.693l7.453-44.455h-13.402l1.392-8.266h36.498L253.271,213.537z
			"/>
		<path fill="#9C9B9B" d="M292.667,257.992h-10.081l-5.602-21.629h-12.321l-3.628,21.629h-9.425l8.805-52.721h19.854
			c3.963,0,7.107,0.367,9.423,1.1c2.317,0.735,4.397,2.351,6.238,4.848c1.84,2.498,2.761,5.357,2.761,8.576
			c0,3.45-1.016,6.649-3.051,9.598c-2.035,2.949-5.175,4.899-9.424,5.851L292.667,257.992z M265.939,228.677h13.094
			c4.018,0,6.663-0.895,7.938-2.684c1.274-1.79,1.912-3.675,1.912-5.659c0-1.7-0.444-3.153-1.333-4.364s-1.938-2.016-3.146-2.415
			c-1.211-0.399-3.026-0.599-5.446-0.599h-10.391L265.939,228.677z"/>
		<path fill="#9C9B9B" d="M344.076,257.992h-10.545l-2.163-12.746H312.25l-5.872,12.746h-8.922l25.262-52.721h11.701
			L344.076,257.992z M330.48,237.908l-4.133-23.406l-10.854,23.406H330.48z"/>
		<path fill="#9C9B9B" d="M389.574,257.992h-7.532l-17.998-39.627l-6.606,39.627h-7.606l8.805-52.721h9.773l16.413,36.19
			l6.064-36.19h7.532L389.574,257.992z"/>
		<path fill="#9C9B9B" d="M435.46,257.992h-34.262l8.807-52.721h33.332l-1.39,8.266h-23.87l-2.278,13.672h19.774l-1.313,7.802
			h-19.775l-2.472,14.715h24.836L435.46,257.992z"/>
		<path fill="#9C9B9B" d="M481.806,213.537h-13.401l-7.456,44.455h-9.693l7.453-44.455h-13.399l1.389-8.266h36.5L481.806,213.537z"
			/>
	</g>
</g>
</svg>
