<?xml version="1.0" encoding="utf-8"?>
<!-- Generator: Adobe Illustrator 15.0.0, SVG Export Plug-In . SVG Version: 6.00 Build 0)  -->
<!DOCTYPE svg PUBLIC "-//W3C//DTD SVG 1.1//EN" "http://www.w3.org/Graphics/SVG/1.1/DTD/svg11.dtd">
<svg version="1.1" id="Capa_1" xmlns="http://www.w3.org/2000/svg" xmlns:xlink="http://www.w3.org/1999/xlink" x="0px" y="0px"
	 width="154.399px" height="220px" viewBox="0 0 154.399 220" enable-background="new 0 0 154.399 220" xml:space="preserve">
<g>
	<path fill-rule="evenodd" clip-rule="evenodd" fill="#FFFFFF" d="M49.916,38.935c6.997,0,13.996,0,20.99,0
		c19.781,7.019,36.39,18.941,39.876,39.876c11.314,67.958-87.251,82.985-100.742,20.988c0-6.996,0-13.992,0-20.988
		C16.055,58.238,29.347,44.946,49.916,38.935z M25.781,74.614c-5.265,13.265-1.539,25.496,0,29.382
		c9.351,23.562,55.685,34.203,69.26,0c8.23-20.741-4.402-43.157-19.937-49.32c-4.498-1.785-15.035-2.728-23.088-1.051
		C36.372,56.888,27.548,70.16,25.781,74.614z"/>
	<path fill-rule="evenodd" clip-rule="evenodd" fill="#FFFFFF" d="M60.415,59.923c0,3.147,0,6.296,0,9.443
		c-12.68,0.617-19.326,7.263-19.942,19.94c-3.145,0-6.298,0-9.443,0C31.734,70.42,41.529,60.625,60.415,59.923z"/>
	<path fill-rule="evenodd" clip-rule="evenodd" fill="#FFFFFF" d="M144.36,155.416c0,3.497,0,6.997,0,10.494
		c-2.104,2.791-4.554,5.24-7.346,7.346c-3.497,0-6.994,0-10.491,0c-11.792-11.647-24.584-22.29-34.63-35.679
		c7.659-3.884,12.139-10.951,17.841-16.792C121.726,131.878,133.238,143.454,144.36,155.416z"/>
</g>
</svg>
