<?xml version="1.0" encoding="utf-8"?>
<!-- Generator: Adobe Illustrator 15.0.0, SVG Export Plug-In . SVG Version: 6.00 Build 0)  -->
<!DOCTYPE svg PUBLIC "-//W3C//DTD SVG 1.1//EN" "http://www.w3.org/Graphics/SVG/1.1/DTD/svg11.dtd">
<svg version="1.1" id="Capa_1" xmlns="http://www.w3.org/2000/svg" xmlns:xlink="http://www.w3.org/1999/xlink" x="0px" y="0px"
	 width="62.585px" height="66.667px" viewBox="0 0 62.585 66.667" enable-background="new 0 0 62.585 66.667" xml:space="preserve">
<g>
	<path fill="#FFFFFF" d="M44.024,41.529l-6.926-6.906c0.727-1.43,1.121-3.015,1.121-4.663c0-2.751-1.072-5.337-3.018-7.281
		c-1.945-1.945-4.531-3.017-7.281-3.017s-5.338,1.071-7.281,3.017c-1.945,1.944-3.018,4.531-3.018,7.281
		c0,2.751,1.072,5.337,3.018,7.281c1.943,1.945,4.529,3.016,7.279,3.016c1.65,0,3.236-0.393,4.664-1.118l6.906,6.927
		c0.627,0.625,1.448,0.939,2.268,0.939c0.82,0,1.643-0.314,2.268-0.939C45.276,44.812,45.276,42.782,44.024,41.529z M23.358,34.521
		c-1.217-1.219-1.889-2.838-1.889-4.561s0.672-3.342,1.891-4.561c1.217-1.219,2.836-1.89,4.559-1.89c1.726,0,3.344,0.671,4.563,1.89
		c1.217,1.218,1.889,2.837,1.889,4.561c0,1.723-0.672,3.342-1.889,4.561c-1.219,1.218-2.84,1.889-4.563,1.889
		C26.198,36.409,24.579,35.739,23.358,34.521z"/>
</g>
</svg>
