<?xml version="1.0" encoding="utf-8"?>
<!-- Generator: Adobe Illustrator 15.0.0, SVG Export Plug-In . SVG Version: 6.00 Build 0)  -->
<!DOCTYPE svg PUBLIC "-//W3C//DTD SVG 1.1//EN" "http://www.w3.org/Graphics/SVG/1.1/DTD/svg11.dtd">
<svg version="1.1" id="Capa_1" xmlns="http://www.w3.org/2000/svg" xmlns:xlink="http://www.w3.org/1999/xlink" x="0px" y="0px"
	 width="62.585px" height="66.667px" viewBox="0 0 62.585 66.667" enable-background="new 0 0 62.585 66.667" xml:space="preserve">
<g>
	<path fill="#FFFFFF" d="M48.226,19.921c-0.064-0.167-0.217-0.285-0.396-0.307c-0.178-0.021-0.354,0.056-0.457,0.202
		c-0.619,0.868-1.434,1.157-2.375,1.493c-0.758,0.271-1.543,0.55-2.393,1.159c-1.199,0.861-1.748,2.035-1.475,3.148l-0.029,0.038
		c-0.502-0.728-1.047-1.399-1.621-2c-2.693-2.809-6.453-4.498-10.32-4.633c-0.17-0.006-0.344-0.01-0.516-0.01
		c-4.316,0-8.449,1.931-11.338,5.296c-2.873,3.348-4.146,7.706-3.493,11.958c0.055,0.355,0.123,0.713,0.203,1.066
		c1.062,4.674,3.774,8.229,7.44,9.754c0.904,0.377,1.816,0.566,2.709,0.566c2.223,0,4.162-1.188,5.324-3.258
		c0.441-0.789,0.725-1.604,0.846-2.424c0.07-0.482,0.021-0.967-0.025-1.436c-0.047-0.482-0.094-0.938-0.02-1.396
		c0.166-1.051,0.9-1.678,1.965-1.678c0.301,0,0.611,0.049,0.92,0.148c-0.361,0.662-0.689,1.295-0.977,1.881
		c-0.607,1.242-1.027,2.271-1.246,3.059c-0.135,0.486-0.494,1.775,0.381,2.383c0.279,0.193,0.631,0.262,0.998,0.193
		c0.33-0.063,1.338-0.248,4.197-3.506c0.768-0.873,1.596-1.885,2.461-3.006c2.219-0.748,3.947-2.607,4.404-4.746
		c0.113-0.534,0.162-1.105,0.141-1.7c0.832-1.284,1.561-2.482,2.293-3.771c0.016-0.025,0.029-0.052,0.043-0.078
		c1.064-0.292,1.98-1.121,2.52-2.279C49.175,24.349,49.118,22.176,48.226,19.921z M36.228,27.928
		c-0.387,0.611-1.049,0.978-1.771,0.978c-0.393,0-0.777-0.111-1.111-0.322c-0.473-0.297-0.801-0.762-0.926-1.306
		c-0.123-0.544-0.027-1.104,0.27-1.577c0.385-0.611,1.047-0.977,1.771-0.977c0.393,0,0.777,0.111,1.111,0.322
		c0.473,0.297,0.801,0.761,0.926,1.305C36.62,26.896,36.524,27.457,36.228,27.928z M38.94,31.715
		c1.057-1.557,2.174-3.104,3.234-4.481c0.172,0.156,0.365,0.308,0.574,0.452c0.346,0.239,0.705,0.425,1.074,0.552
		c-0.896,1.533-1.859,3.051-3.025,4.77c-1.918,2.824-3.91,5.449-5.613,7.388c-0.951,1.084-1.783,1.92-2.424,2.438
		c0.248-0.791,0.721-1.879,1.379-3.166C35.315,37.364,37.021,34.542,38.94,31.715z M20.386,31.703c-0.393,0-0.777-0.111-1.111-0.322
		c-0.473-0.297-0.801-0.761-0.924-1.306c-0.125-0.544-0.029-1.104,0.27-1.577c0.385-0.611,1.047-0.977,1.77-0.977
		c0.395,0,0.777,0.111,1.111,0.322c0.977,0.614,1.27,1.907,0.656,2.882C21.772,31.337,21.11,31.703,20.386,31.703z M18.194,36.306
		c0.385-0.611,1.047-0.977,1.771-0.977c0.393,0,0.777,0.109,1.111,0.32c0.473,0.299,0.801,0.762,0.924,1.307
		c0.125,0.543,0.029,1.104-0.27,1.576c-0.385,0.611-1.047,0.977-1.77,0.977c-0.393,0-0.777-0.111-1.111-0.322
		c-0.473-0.297-0.803-0.76-0.926-1.305S17.897,36.778,18.194,36.306z M24.89,23.89c0.385-0.611,1.047-0.977,1.77-0.977
		c0.393,0,0.777,0.111,1.111,0.322c0.977,0.614,1.27,1.907,0.656,2.883c-0.385,0.611-1.047,0.977-1.771,0.977
		c-0.393,0-0.777-0.111-1.111-0.322c-0.473-0.297-0.801-0.761-0.924-1.306C24.495,24.923,24.591,24.363,24.89,23.89z"/>
</g>
</svg>
