<?xml version="1.0" encoding="utf-8"?>
<!-- Generator: Adobe Illustrator 15.0.0, SVG Export Plug-In . SVG Version: 6.00 Build 0)  -->
<!DOCTYPE svg PUBLIC "-//W3C//DTD SVG 1.1//EN" "http://www.w3.org/Graphics/SVG/1.1/DTD/svg11.dtd">
<svg version="1.1" id="Capa_1" xmlns="http://www.w3.org/2000/svg" xmlns:xlink="http://www.w3.org/1999/xlink" x="0px" y="0px"
	 width="62.585px" height="66.667px" viewBox="0 0 62.585 66.667" enable-background="new 0 0 62.585 66.667" xml:space="preserve">
<g>
	<g>
		<path fill="#FFFFFF" d="M41.59,43.792H21.002c-0.629,0-1.139,0.515-1.139,1.14v1.521c0,0.629,0.514,1.14,1.139,1.14h20.58
			c0.629,0,1.139-0.515,1.139-1.14v-1.521C42.734,44.299,42.219,43.792,41.59,43.792z"/>
		<path fill="#FFFFFF" d="M30.499,41.752c0.225,0.223,0.516,0.336,0.805,0.336c0.291,0,0.584-0.113,0.803-0.336l7.796-7.797
			c0.441-0.443,0.441-1.165,0-1.615l-1.08-1.079c-0.441-0.442-1.164-0.442-1.613,0l-4.007,4.013V20.215
			c0-0.629-0.516-1.141-1.141-1.141H30.54c-0.629,0-1.139,0.508-1.139,1.141v15.063l-4.014-4.013c-0.441-0.442-1.168-0.442-1.613,0
			l-1.08,1.079c-0.441,0.442-0.441,1.168,0,1.615L30.499,41.752z"/>
	</g>
</g>
</svg>
