<?xml version="1.0" encoding="utf-8"?>
<!-- Generator: Adobe Illustrator 15.0.0, SVG Export Plug-In . SVG Version: 6.00 Build 0)  -->
<!DOCTYPE svg PUBLIC "-//W3C//DTD SVG 1.1//EN" "http://www.w3.org/Graphics/SVG/1.1/DTD/svg11.dtd">
<svg version="1.1" id="Capa_1" xmlns="http://www.w3.org/2000/svg" xmlns:xlink="http://www.w3.org/1999/xlink" x="0px" y="0px"
	 width="62.585px" height="66.667px" viewBox="0 0 62.585 66.667" enable-background="new 0 0 62.585 66.667" xml:space="preserve">
<g>
	<g>
		<g>
			<path fill="#FFFFFF" d="M40.486,42.651V29.557c0-0.21-0.086-0.406-0.234-0.543l-5.961-5.541
				c-0.137-0.123-0.321-0.197-0.506-0.197h-9.218c-0.407,0-0.74,0.334-0.74,0.74v8.269c0,0.407,0.333,0.74,0.74,0.74
				s0.74-0.333,0.74-0.74v-7.528h7.527v5.678c0,0.406,0.333,0.74,0.741,0.74h5.306c0.036,0,0.086,0,0.123-0.013v10.748H25.308
				v-2.961c0-0.408-0.333-0.74-0.74-0.74s-0.74,0.332-0.74,0.74v3.703c0,0.406,0.333,0.74,0.74,0.74h15.179
				C40.152,43.392,40.486,43.058,40.486,42.651z M34.316,25.522l4.479,4.172h-4.479V25.522z"/>
			<path fill="#FFFFFF" d="M22.1,35.493c0,0.408,0.332,0.74,0.74,0.74h7.713l-2.383,2.123c-0.309,0.271-0.333,0.74-0.061,1.049
				c0.147,0.16,0.345,0.246,0.555,0.246c0.173,0,0.346-0.061,0.494-0.186l3.85-3.43c0.16-0.135,0.247-0.346,0.247-0.555
				c0-0.211-0.087-0.408-0.247-0.557l-3.85-3.43c-0.309-0.271-0.778-0.247-1.049,0.061c-0.272,0.31-0.248,0.779,0.062,1.05
				l2.419,2.148h-7.75C22.432,34.753,22.1,35.085,22.1,35.493z"/>
		</g>
	</g>
</g>
</svg>
