<?xml version="1.0" encoding="utf-8"?>
<!-- Generator: Adobe Illustrator 16.0.0, SVG Export Plug-In . SVG Version: 6.00 Build 0)  -->
<!DOCTYPE svg PUBLIC "-//W3C//DTD SVG 1.1//EN" "http://www.w3.org/Graphics/SVG/1.1/DTD/svg11.dtd">
<svg version="1.1" id="Capa_1" xmlns="http://www.w3.org/2000/svg" xmlns:xlink="http://www.w3.org/1999/xlink" x="0px" y="0px"
	 width="532.496px" height="308.552px" viewBox="-173.197 0 532.496 308.552" enable-background="new -173.197 0 532.496 308.552"
	 xml:space="preserve">
<g>
	<g>
		<path fill="#FFFFFF" d="M-139.072,38.73h-18.146V14.537h18.146v4.123l2.418-2.696v-1.383c0-1.358-1.104-2.463-2.464-2.463h-18.057
			c-1.36,0-2.463,1.104-2.463,2.463v24.105c0,1.359,1.103,2.464,2.463,2.464h18.06c1.358,0,2.463-1.104,2.463-2.464v-7.938
			l-2.42,2.697L-139.072,38.73L-139.072,38.73z"/>
		<path fill="#FFFFFF" d="M-141.124,18.973c0-0.668-0.541-1.209-1.209-1.209h-11.636c-0.667-0.001-1.209,0.541-1.209,1.209
			c0,0.667,0.542,1.209,1.209,1.209h11.635C-141.665,20.182-141.124,19.64-141.124,18.973z"/>
		<path fill="#FFFFFF" d="M-142.79,22.832h-11.179c-0.668,0-1.209,0.542-1.209,1.209c0,0.668,0.542,1.21,1.209,1.21h9.008
			L-142.79,22.832z"/>
		<path fill="#FFFFFF" d="M-147.312,27.842h-6.657c-0.668,0-1.209,0.544-1.209,1.212c0,0.666,0.542,1.209,1.209,1.209h5.287
			L-147.312,27.842z"/>
		<path fill="#FFFFFF" d="M-155.178,34.122c0,0.668,0.542,1.209,1.209,1.209h3.872c0.015-0.173,0.04-0.268,0.078-0.396l0.582-2.021
			h-4.532C-154.636,32.913-155.178,33.454-155.178,34.122z"/>
		<path fill="#FFFFFF" d="M-137.021,19.088l-8.447,9.416l-0.653,0.729l4.651,4.171l0.651-0.729l8.446-9.416l0.763-0.851
			l-4.648-4.171L-137.021,19.088z M-137.423,23.342l-5.539,6.175c-0.067,0.078-0.167,0.125-0.271,0.13
			c-0.104,0.006-0.204-0.03-0.281-0.101l-0.274-0.244c-0.161-0.146-0.174-0.395-0.029-0.555l5.54-6.176
			c0.068-0.078,0.166-0.125,0.271-0.13c0.104-0.005,0.205,0.03,0.282,0.1l0.271,0.247C-137.29,22.933-137.279,23.181-137.423,23.342
			z M-135.813,20.408l0.272,0.246c0.16,0.144,0.174,0.392,0.029,0.553l-0.07,0.079l-0.396,0.441l-0.019,0.018
			c-0.066,0.078-0.166,0.124-0.271,0.129c-0.104,0.006-0.205-0.027-0.282-0.1l-0.274-0.246c-0.078-0.069-0.123-0.167-0.13-0.271
			c-0.006-0.104,0.03-0.205,0.103-0.282l0.479-0.537C-136.222,20.277-135.974,20.263-135.813,20.408z"/>
		<polygon fill="#FFFFFF" points="-135.459,17.349 -135.809,17.739 -131.159,21.91 -130.808,21.518 -130.018,20.637 
			-134.667,16.467 		"/>
		<path fill="#FFFFFF" d="M-127.7,17.459c-0.02-0.356-0.181-0.692-0.446-0.934l-2.636-2.364c-0.268-0.24-0.618-0.363-0.977-0.344
			c-0.358,0.019-0.695,0.18-0.935,0.448l-1.556,1.73l4.65,4.169l1.553-1.73C-127.805,18.169-127.681,17.819-127.7,17.459z
			 M-129.693,18.431l-2.816-2.527l0.813-0.906l2.814,2.526L-129.693,18.431z"/>
		<path fill="#FFFFFF" d="M-148.079,36.094c0.192,0.172,0.467,0.219,0.705,0.119l5.346-2.188l-4.647-4.17l-1.6,5.551
			C-148.348,35.655-148.271,35.921-148.079,36.094z M-146.251,31.337l2.7,2.426l-2.101,0.859l-1.229-1.103L-146.251,31.337z"/>
	</g>
</g>
<g>
	<path fill="#FFFFFF" d="M-25.22,11.435h-18.141c-0.787,0-1.428,0.64-1.428,1.427v25.072c0,2.218,1.806,4.021,4.022,4.021h12.95
		c2.218,0,4.021-1.804,4.021-4.021V12.862C-23.794,12.075-24.434,11.435-25.22,11.435z M-25.163,37.934
		c0,1.462-1.188,2.651-2.651,2.651h-12.95c-1.462,0-2.653-1.189-2.653-2.651V12.862c0-0.031,0.027-0.058,0.059-0.058h18.14
		c0.029,0,0.057,0.025,0.057,0.058V37.934z"/>
	<path fill="#FFFFFF" d="M-28.114,15.401h-12.353c-0.379,0-0.686,0.306-0.686,0.685v4.342c0,0.378,0.307,0.686,0.686,0.686h12.353
		c0.377,0,0.684-0.308,0.684-0.686v-4.342C-27.431,15.707-27.737,15.401-28.114,15.401z M-28.8,19.743h-10.982V16.77H-28.8V19.743z"
		/>
	<path fill="#FFFFFF" d="M-37.767,29.813h-2.699c-0.379,0-0.686,0.307-0.686,0.685v2.684c0,0.377,0.307,0.685,0.686,0.685h2.699
		c0.377,0,0.684-0.308,0.684-0.685v-2.684C-37.083,30.12-37.39,29.813-37.767,29.813z M-38.452,32.495h-1.33v-1.313h1.33V32.495z"/>
	<path fill="#FFFFFF" d="M-32.925,29.813h-2.699c-0.377,0-0.684,0.307-0.684,0.685v2.684c0,0.377,0.307,0.685,0.684,0.685h2.699
		c0.379,0,0.687-0.308,0.687-0.685v-2.684C-32.239,30.12-32.546,29.813-32.925,29.813L-32.925,29.813z M-33.608,32.495h-1.33v-1.313
		h1.33V32.495L-33.608,32.495z"/>
	<path fill="#FFFFFF" d="M-37.767,25.137h-2.699c-0.379,0-0.686,0.308-0.686,0.686v2.682c0,0.378,0.307,0.686,0.686,0.686h2.699
		c0.377,0,0.684-0.308,0.684-0.686v-2.682C-37.083,25.445-37.39,25.137-37.767,25.137z M-38.452,27.82h-1.33v-1.313h1.33V27.82z"/>
	<path fill="#FFFFFF" d="M-32.925,25.137h-2.699c-0.377,0-0.684,0.308-0.684,0.686v2.682c0,0.378,0.307,0.686,0.684,0.686h2.699
		c0.379,0,0.687-0.308,0.687-0.686v-2.682C-32.239,25.445-32.546,25.137-32.925,25.137L-32.925,25.137z M-33.608,27.82h-1.33v-1.313
		h1.33V27.82L-33.608,27.82z"/>
	<path fill="#FFFFFF" d="M-28.114,25.137h-2.699c-0.379,0-0.687,0.308-0.687,0.686v2.682c0,0.378,0.308,0.686,0.687,0.686h2.699
		c0.377,0,0.684-0.308,0.684-0.686v-2.682C-27.431,25.445-27.737,25.137-28.114,25.137z M-28.8,27.82h-1.33v-1.313h1.33V27.82z"/>
	<path fill="#FFFFFF" d="M-37.767,34.573h-2.699c-0.379,0-0.686,0.307-0.686,0.685v2.683c0,0.378,0.307,0.686,0.686,0.686h2.699
		c0.377,0,0.684-0.308,0.684-0.686v-2.683C-37.083,34.879-37.39,34.573-37.767,34.573z M-38.452,37.254h-1.33v-1.313h1.33V37.254z"
		/>
	<path fill="#FFFFFF" d="M-32.925,34.573h-2.699c-0.377,0-0.684,0.307-0.684,0.685v2.683c0,0.378,0.307,0.686,0.684,0.686h2.699
		c0.379,0,0.687-0.308,0.687-0.686v-2.683C-32.239,34.879-32.546,34.573-32.925,34.573L-32.925,34.573z M-33.608,37.254h-1.33
		v-1.313h1.33V37.254L-33.608,37.254z"/>
	<path fill="#FFFFFF" d="M-28.114,29.813h-2.699c-0.379,0-0.687,0.307-0.687,0.685v7.441c0,0.378,0.308,0.686,0.687,0.686h2.699
		c0.377,0,0.684-0.308,0.684-0.686v-7.441C-27.431,30.12-27.737,29.813-28.114,29.813z M-28.8,37.254h-1.33v-6.071h1.33V37.254z"/>
</g>
<g>
	<path fill="#FFFFFF" d="M105.134,37.905c-0.05-0.66-0.107-1.35-0.366-1.96c-0.038-0.093-0.105-0.153-0.185-0.191
		c-0.166-0.396-0.67-0.675-1.052-0.387c-0.932,0.704-3.397-0.31-4.095-0.99c-0.912-0.887-1.293-2.321-1.039-3.556
		c0.589-2.843,3.383-2.916,5.611-3.514c0.061-0.017,0.095-0.056,0.139-0.085c0.401-0.146,0.73-0.526,0.616-1.063
		c-0.159-0.732-0.323-1.461-0.36-2.212c-0.028-0.507-0.572-0.754-0.953-0.592c-3.352-0.563-6.646-0.541-10.039-0.38
		c-1.675,0.08-3.35,0.206-5.027,0.243c-1.114,0.034-2.229,0.027-3.346-0.021c-2.604-1.499-2.742-2.188-0.411-2.067
		c1.021-0.089,1.448-1.755,0.264-1.942c-1.74-0.276-3.826,0.467-4.593,1.74c-0.221,0.073-0.403,0.267-0.426,0.58
		c-0.348,4.902-0.346,9.827-0.305,14.741c0.018,2.065-0.25,3.722,1.826,4.637c2.871,1.267,8.465,0.209,11.599,0.234
		c3.192,0.028,8.142,1.033,11.102-0.19c0.39-0.162,0.691-0.458,0.69-0.91c0-0.075,0-0.15,0-0.228
		C105.239,39.29,105.183,38.558,105.134,37.905z M102.995,39.393c-0.031,0.188-16.364-0.257-17.715-0.269
		c-2.481-0.02-3.045,0.601-3.816-2.875c-0.311-1.406-0.006-3.177-0.011-4.606c-0.013-2.475-0.066-4.937-0.175-7.399
		c2.014,1.761,5.516,1.251,7.943,1.165c4.607-0.162,9.089-0.508,13.678,0.016c0,0.144,0.009,0.287,0.018,0.431
		c-2.962-0.786-6.327,2.565-6.42,5.436c-0.123,3.82,3.349,6.44,6.979,5.933c-0.053,0.235-0.105,0.473-0.146,0.7
		c-0.063,0.367-0.127,0.717-0.108,1.048C103.114,39.074,103.026,39.205,102.995,39.393z"/>
	<path fill="#FFFFFF" d="M108.167,28.021c0.076-0.442-0.476-0.838-0.844-0.457c-0.796,0.818-1.904,1.456-3.053,1.571
		c-0.931,0.093-1.92-0.149-2.771,0.37c-1.375,0.844-1.418,2.886-0.335,3.979c1.356,1.369,3.389,1.148,5.008,0.448
		c0.71-0.309,1.852-0.689,2.183-1.47c0.146-0.348,0.079-0.686,0.041-1.055c-0.098-0.909-0.058-1.672,0.245-2.54
		C108.798,28.416,108.522,28.106,108.167,28.021z M101.917,31.511c0.032-0.137,0.101-0.243,0.183-0.34
		c0.834-0.342,1.465,0.33,1.188,1.15c-0.104,0.316,0.008,0.563,0.205,0.711C102.716,32.942,101.694,32.45,101.917,31.511z"/>
	<path fill="#FFFFFF" d="M103.502,20.538c-0.505-1.453-0.831-3.203-1.724-4.465c-0.129-0.183-0.343-0.366-0.588-0.338
		c-2.146,0.256-4.365,1.522-6.359,2.333c-1.938,0.788-3.881,1.564-5.746,2.511c-0.076,0.004-0.151,0.009-0.229,0.012
		c-0.326,0.018-0.532,0.203-0.637,0.437c-0.039,0.021-0.081,0.039-0.12,0.062c-0.364,0.202-0.176,0.718,0.187,0.742
		c0.119,0.159,0.304,0.27,0.57,0.258c4.659-0.183,9.332-0.304,13.98-0.677C103.253,21.377,103.659,20.993,103.502,20.538z"/>
	<path fill="#FFFFFF" d="M98.072,14.179c-0.88-1.063-1.75-2.136-2.657-3.176c-0.234-0.271-0.754-0.271-0.987,0
		c-2.537,2.924-5.298,5.66-7.895,8.53c-0.392,0.433-0.088,0.991,0.333,1.117c0.116,0.126,0.302,0.188,0.511,0.089
		c3.577-1.719,6.952-3.804,10.557-5.479C98.37,15.058,98.329,14.489,98.072,14.179z"/>
	<path fill="#FFFFFF" d="M107.362,20.3c-0.754-1.12-2.418-1.154-3.21-0.102c-0.354,0.465,0.35,1.171,0.814,0.815
		c1.064-0.817,1.116,1.33,1.037,1.854c-0.131,0.879-0.45,1.94,0.123,2.71c0.381,0.51,1.136,0.462,1.351-0.177
		c0.153-0.449,0.105-0.896,0.16-1.363c0.055-0.46,0.152-0.914,0.195-1.376C107.905,21.858,107.825,20.987,107.362,20.3z"/>
	<path fill="#FFFFFF" d="M107.648,35.814c-0.352-0.42-1.026-0.245-1.282,0.165c-0.299,0.477-0.193,0.919-0.246,1.456
		c-0.049,0.501-0.184,0.969-0.311,1.454c-0.238,0.917,1.024,1.447,1.522,0.641C107.94,38.542,108.461,36.788,107.648,35.814z"/>
</g>
<g>
	<path fill="#FFFFFF" d="M222.478,35.811l-1.328-1.328c-0.604,0.275-1.248,0.457-1.906,0.533c-0.486,0.073-0.794,0.059-1.331,0.022
		l-0.063-0.004c-3.353-0.317-5.88-3.099-5.88-6.47c0.005-1.76,0.688-3.389,1.92-4.61c1.23-1.223,2.865-1.895,4.602-1.885
		c1.507,0.004,2.887,0.526,3.988,1.394v-9.2c0-0.557-0.449-1.006-1.004-1.006l-17.131-0.008c0-0.69,1.038-1.041,1.038-1.041h17.098
		c1.068,0,1.04,0.942,1.04,0.942v11.331c0.903,1.116,1.449,2.537,1.449,4.082c-0.002,0.941-0.201,1.852-0.578,2.685l0.713,0.715
		V11.538c-0.002-0.754-0.945-0.943-0.945-0.943h-18.965c-2.829,0-2.829,2.62-2.829,2.62v24.14c0,0.556,0.448,1.007,1.006,1.007
		h18.104c0.557,0,1.004-0.451,1.004-1.007h1.541l-1.015-1.016L222.478,35.811z M207.309,16.995h10.383v1.965h-10.383V16.995z
		 M228.727,37.409l-5.857-5.855c0.595-0.852,0.945-1.884,0.949-3c0.01-2.914-2.346-5.285-5.258-5.291
		c-2.912-0.014-5.285,2.342-5.295,5.256c-0.009,2.749,2.087,5.016,4.772,5.27h0.026c0.525,0.037,0.727,0.045,1.087-0.012
		c0.889-0.103,1.709-0.427,2.406-0.913l5.856,5.855c0.361,0.364,0.949,0.364,1.312,0.002
		C229.088,38.359,229.088,37.772,228.727,37.409z M218.529,32.493c-2.186-0.007-3.951-1.785-3.943-3.974
		c0.007-2.184,1.787-3.947,3.972-3.938c2.185,0.006,3.948,1.784,3.941,3.969C222.494,30.736,220.713,32.501,218.529,32.493z"/>
</g>
<g>
	<g>
		<path fill="#FFFFFF" d="M335.914,39.696c1.031-1.152,1.521-2.754,0.671-4.111c0.936-1.371,1.04-3.389-0.332-4.377
			c0.529-0.856,0.895-1.886,0.633-2.86c-0.237-0.883-1.092-1.332-1.922-1.539c1.434-1.685,3.457-3.72,5.725-4.957l0.318-0.175
			l-0.133-0.338c-0.091-0.229-2.288-5.655-7.037-5.52l-0.329,0.01l-0.063,0.322c-0.018,0.081-1.606,7.985-4.206,10.985
			c-0.172,0.038-0.342,0.076-0.51,0.115c-0.031-0.807-0.118-1.633-0.271-2.443c-0.255-1.85-0.752-4.333-1.725-6.613
			c0.875-0.423,0.797-1.539,0.681-2.147c1.16-0.554,2.794-1.086,4.433-0.809c0.035,0.479,0.187,1.355,0.775,1.762
			c0.137-0.584,0.21-0.942,0.213-0.96l0.125-0.643l0.656-0.021c0.254-0.007,0.505,0.005,0.756,0.026l-0.226-0.145
			c-3.997-2.568-8.681,0.944-8.877,1.096l-0.289,0.221l0.184,0.313c1.388,2.377,2.073,5.388,2.413,7.621
			c-2.921,0.173-4.533,2.204-5.955,3.998c-0.988,1.245-1.853,2.331-2.946,2.534l-0.005-0.105l-0.043-0.997l-4.717,0.207l0.609,13.93
			l4.717-0.208l-0.035-0.836c4.237-0.049,8.444,0.645,12.676,0.803c1.301,0.049,2.646,0.113,3.636-0.84
			C336.355,42.188,336.304,40.749,335.914,39.696z M315.695,32.86l-0.061-1.379l1.377-0.061l0.061,1.377L315.695,32.86z
			 M332.148,23.53c-0.02,0.514,0.253,1.103,0.769,1.539c0.771,0.658,1.796,0.725,2.285,0.147c0.489-0.575,0.261-1.574-0.513-2.231
			c-0.766-0.651-1.774-0.723-2.271-0.164c0.645-1.747,1.129-3.512,1.436-4.764c0.893,0.244,1.635-0.607,1.963-1.071
			c1.546,0.608,2.671,1.908,3.38,2.98c-0.416,0.46-1.058,1.377-0.524,2.191c-1.883,1.359-3.501,3.086-4.661,4.494
			c-1.164-0.113-2.373,0.018-3.557,0.233C331.094,25.939,331.661,24.758,332.148,23.53z M327.599,24.659
			c-0.002,0.002-0.006,0.004-0.009,0.007l-0.005-0.097C327.591,24.599,327.594,24.629,327.599,24.659z M333.903,42.203
			c-1.209,0.351-2.75,0.113-3.979,0.026c-3.483-0.248-7.22-0.814-10.719-0.773l-0.45-8.791c1.673-0.208,3.067-1.706,4.151-3.072
			c1.224-1.543,2.488-3.133,4.599-3.325c0.078,0.645,0.083,1.237,0.088,1.964c0.002,0.386,0.39,0.583,0.726,0.504
			c1.775-0.413,3.699-0.857,5.539-0.672c0.013,0.008,0.024,0.015,0.035,0.021c0.005-0.006,0.009-0.013,0.016-0.019
			c0.03,0.004,0.061,0.005,0.09,0.009c0.556,0.066,1.433,0.252,1.537,0.927c0.078,0.505-0.143,1.021-0.366,1.458
			c-0.132,0.258-0.38,0.633-0.425,0.692c-0.199,0.259-0.205,0.721,0.149,0.867c1.363,0.559,1.121,2.216,0.285,3.159
			c-0.149,0.173-0.213,0.483-0.057,0.678c0.896,1.098,0.366,2.295-0.55,3.188c-0.128,0.122-0.2,0.38-0.121,0.547
			C334.866,40.467,335.094,41.856,333.903,42.203z"/>
		<path fill="#FFFFFF" d="M329.719,20.958c-1.002,0.164-1.715,0.902-1.592,1.648c0.122,0.746,1.033,1.217,2.033,1.053
			c0.151-0.025,0.296-0.065,0.434-0.114c0.294-0.705,0.563-1.44,0.805-2.166C331.018,21.024,330.389,20.847,329.719,20.958z"/>
	</g>
</g>
<g>
	<g>
		<path fill="#FFFFFF" d="M-143.911,129.342c-0.532-0.391-0.59-0.979-0.59-0.979l-0.199-1.275h-6.358l-0.199,1.274
			c0,0-0.057,0.588-0.588,0.979c-0.531,0.392-0.951,0.729-0.531,0.784c0.404,0.056,4.218,0.005,4.498,0
			c0.281,0.005,4.096,0.056,4.499,0C-142.962,130.07-143.381,129.735-143.911,129.342z"/>
		<g>
			<path fill="#FFFFFF" d="M-155.042,119.153c1.698-0.013,1.91-0.422,2.465-2.128c1.021-2.691,5.619,0.705,2.771,1.884
				C-152.659,120.088-156.741,119.167-155.042,119.153z"/>
			<path fill="#FFFFFF" d="M-137.623,101.416c-0.824-0.665-2.189-0.337-3.05,0.73l-8.717,12.383
				c-0.86,1.067-0.855,0.863-0.031,1.526c0.824,0.665,0.625,0.712,1.486-0.355l10.246-11.147
				C-136.829,103.483-136.798,102.08-137.623,101.416z M-139.864,102.897c0,0-0.13-0.148-0.552-0.487
				c0.636-1.04,1.888-0.849,1.888-0.849C-139.715,102.261-139.864,102.897-139.864,102.897z"/>
		</g>
		<path fill="#FFFFFF" d="M-133.758,105.6h-3.833l-1.692,1.842h4.911v14.733h-27.016v-14.733h15.717l1.297-1.842h-17.627
			c-0.678,0-1.228,0.549-1.228,1.228v17.805c0,0.68,0.55,1.229,1.228,1.229h28.243c0.679,0,1.229-0.549,1.229-1.229v-17.805
			C-132.53,106.149-133.079,105.6-133.758,105.6z"/>
	</g>
</g>
<g>
	<g>
		<path fill="#FFFFFF" d="M-26.626,107.28c1.734,0,3.146-1.411,3.146-3.146c0-0.139-0.011-0.275-0.027-0.41l0.363-0.008
			c0.424-0.009,0.881-0.304,1.063-0.686l0.302-0.635c0.112-0.237,0.106-0.486-0.017-0.683c-0.124-0.194-0.347-0.308-0.611-0.308
			l-2.646,0.006c-0.462-0.269-0.999-0.423-1.571-0.423c-1.733,0-3.146,1.41-3.146,3.145C-29.771,105.869-28.36,107.28-26.626,107.28
			z"/>
		<path fill="#FFFFFF" d="M-19.304,115.452l-3.668-6.671c-0.258-0.47-0.58-0.837-1.414-0.837h-3.74c-0.521,0-0.938,0.386-1.039,0.49
			l-2.007,2.11c-0.325,0.342-0.655,0.972-0.751,1.433l-0.826,3.95c-0.012,0.056-0.018,0.11-0.021,0.166l-2.091,8.07h-12.088
			c-0.608,0-1.104,0.494-1.104,1.104c0,0.263,0.092,0.503,0.244,0.69c-0.229,0.391-0.361,0.841-0.361,1.324
			c0,1.438,1.168,2.607,2.605,2.607s2.607-1.17,2.607-2.607c0-0.32-0.058-0.627-0.165-0.911h4.879
			c-0.104,0.284-0.163,0.591-0.163,0.911c0,1.438,1.168,2.607,2.604,2.607c1.438,0,2.608-1.17,2.608-2.607
			c0-0.438-0.11-0.854-0.305-1.217c0.322-0.226,0.567-0.56,0.668-0.949l2.199-8.48c0.055-0.09,0.101-0.187,0.13-0.287l0.896-3.046
			c0.062-0.209,0.21-0.483,0.373-0.714v5.072l-2.444,10.478c-0.209,0.901,0.348,1.833,1.242,2.074l0.023,0.008
			c0.145,0.039,0.29,0.059,0.438,0.059l0,0c0.766,0,1.424-0.524,1.598-1.274l2.23-9.562l0.871,2.361
			c0.237,0.651,0.502,1.783,0.571,2.473l0.468,4.502c0.082,0.795,0.71,1.372,1.491,1.372c0.13,0,0.259-0.015,0.386-0.046
			l0.025-0.006c0.887-0.215,1.516-1.126,1.4-2.031l-0.692-5.49c-0.096-0.75-0.391-1.934-0.661-2.639l-0.99-2.586
			c-0.011-0.022-0.019-0.044-0.027-0.065v-3.854l1.869,3.337c0.188,0.336,0.539,0.544,0.919,0.544c0.204,0,0.403-0.06,0.579-0.172
			l0.246-0.16C-19.189,116.66-19.016,115.972-19.304,115.452z M-35.8,126.415c0.48,0,0.87,0.392,0.87,0.869
			c0,0.479-0.39,0.869-0.87,0.869c-0.479,0-0.869-0.391-0.869-0.869C-36.669,126.806-36.278,126.415-35.8,126.415z M-45.563,128.153
			c-0.479,0-0.869-0.391-0.869-0.869c0-0.478,0.391-0.869,0.869-0.869c0.479,0,0.87,0.392,0.87,0.869
			C-44.693,127.762-45.083,128.153-45.563,128.153z"/>
		<path fill="#FFFFFF" d="M-47.185,122.443h10.942c0.447,0,0.812-0.363,0.812-0.811v-7.426c0-0.444-0.363-0.81-0.812-0.81h-10.942
			c-0.447,0-0.811,0.364-0.811,0.81v7.426C-47.994,122.08-47.632,122.443-47.185,122.443z"/>
	</g>
</g>
<g>
	<g>
		<path fill="#FFFFFF" d="M84.032,114.417l-2.986-0.046c-0.258-0.004-0.52-0.229-0.559-0.483l-0.684-4.348
			c-0.045-0.271-0.152-0.46-0.285-0.582c-0.248-0.353-0.664-0.579-1.125-0.558l-3.771,0.164c-0.726,0.031-1.315,0.647-1.313,1.374
			l0.002,9.037c0,0.021,0.002,0.043,0.004,0.063c0,0.012-0.002,0.021-0.002,0.033c-0.002,0.477-0.027,1.271-0.057,1.77l-0.123,2.173
			c-0.025,0.455-0.202,1.191-0.388,1.608l-1.527,3.455c-0.146,0.333-0.145,0.701,0.009,1.01c0.15,0.31,0.439,0.537,0.794,0.624
			l0.146,0.036c0.109,0.027,0.228,0.042,0.343,0.042c0.602,0,1.174-0.348,1.428-0.866l1.427-2.906
			c0.233-0.479,0.524-1.286,0.649-1.804l0.81-3.37l1.965,3.007c0.237,0.364,0.49,1.064,0.539,1.498l0.378,3.352
			c0.08,0.705,0.724,1.279,1.434,1.279h0.214c0.361-0.002,0.692-0.146,0.929-0.409c0.235-0.262,0.347-0.604,0.312-0.966
			l-0.402-4.065c-0.056-0.543-0.249-1.368-0.444-1.878l-1.896-4.951l-0.011-0.977l4.308-0.159c0.375-0.015,0.715-0.165,0.938-0.415
			c0.181-0.201,0.269-0.451,0.247-0.705C85.28,114.883,84.712,114.428,84.032,114.417z M81.135,129.561L81.135,129.561
			L81.135,129.561L81.135,129.561z"/>
		<path fill="#FFFFFF" d="M75.755,107.588c0.364,0,0.727-0.063,1.072-0.186c0.81-0.286,1.46-0.871,1.83-1.646
			c0.247-0.518,0.348-1.078,0.305-1.637l0.812-0.091c0.477-0.054,0.96-0.436,1.127-0.886l0.254-0.695
			c0.098-0.268,0.072-0.538-0.07-0.743c-0.141-0.199-0.375-0.313-0.645-0.313c-0.031,0-0.063,0.001-0.097,0.004l-2.852,0.271
			c-0.506-0.326-1.107-0.512-1.738-0.512c-0.364,0-0.726,0.063-1.071,0.186c-1.673,0.593-2.552,2.435-1.959,4.105
			C73.175,106.727,74.395,107.588,75.755,107.588z"/>
		<path fill="#FFFFFF" d="M88.765,108.239c-0.045-0.672-0.632-1.219-1.31-1.219l-5.381,0.01c-0.338,0-0.649,0.135-0.876,0.378
			c-0.228,0.243-0.338,0.563-0.315,0.901l0.273,3.928c0.047,0.672,0.633,1.219,1.307,1.219l5.385-0.01
			c0.339-0.001,0.648-0.136,0.876-0.379c0.228-0.242,0.338-0.563,0.313-0.9L88.765,108.239z M82.464,113.038L82.464,113.038
			L82.464,113.038L82.464,113.038z"/>
		<path fill="#FFFFFF" d="M101.819,108.657c1.865,0,3.385-1.519,3.385-3.386c0-1.866-1.52-3.384-3.385-3.384
			c-1.866,0-3.386,1.518-3.386,3.384C98.434,107.138,99.953,108.657,101.819,108.657z"/>
		<path fill="#FFFFFF" d="M108.632,113.545l-2.317-3.229c-0.283-0.396-0.877-0.853-1.876-0.853c-1.398,0-5.594,0-5.594,0
			c-0.498,0-1.149,0.253-1.485,0.424l-1.779,0.903c-0.17,0.086-0.438,0.141-0.705,0.141c-0.188,0-0.358-0.026-0.484-0.073
			l-2.881-1.075c-0.135-0.051-0.27-0.075-0.401-0.075c-0.546,0-0.941,0.424-0.941,1.008v0.219c0,0.631,0.463,1.296,1.056,1.515
			l2.922,1.081c0.263,0.098,0.606,0.151,0.971,0.151l0,0c0.326,0,0.639-0.047,0.88-0.128l2.268-0.772v15.87
			c0,0.827,0.674,1.501,1.502,1.501h0.352c0.828,0,1.502-0.674,1.502-1.501v-7.902h0.41v7.902c0,0.827,0.674,1.501,1.502,1.501
			h0.351c0.828,0,1.501-0.674,1.501-1.501v-9.605c0.577-0.045,1.211-0.411,1.519-0.887l1.783-2.765
			C109.018,114.866,108.997,114.054,108.632,113.545z M105.378,113.159l0.78,1.118c0.161,0.23,0.159,0.653-0.004,0.885l-0.776,1.095
			V113.159z"/>
	</g>
</g>
<g>
	<g>
		<path fill="#FFFFFF" d="M211.979,102.011c0.168,0.354,0.591,0.627,0.981,0.635l0.968,0.021c-0.058,0.245-0.089,0.5-0.089,0.762
			c0,1.884,1.533,3.417,3.418,3.417c1.884,0,3.416-1.533,3.416-3.417s-1.532-3.417-3.416-3.417c-0.671,0-1.296,0.194-1.823,0.529
			l-3.145-0.008c-0.243,0-0.45,0.104-0.563,0.285c-0.115,0.182-0.12,0.411-0.017,0.633L211.979,102.011z"/>
		<path fill="#FFFFFF" d="M210.735,119.415h-0.586v-4.398c0-0.563-0.459-1.022-1.021-1.022h-5.606c-0.564,0-1.023,0.459-1.023,1.022
			v4.398h-0.586c-0.563,0-1.021,0.459-1.021,1.021v7.661c0,0.563,0.458,1.022,1.021,1.022h8.824c0.564,0,1.023-0.459,1.023-1.022
			v-7.661C211.76,119.874,211.3,119.415,210.735,119.415z M206.323,116.384l1.285,1.447h-0.671v1.805h-1.229v-1.805h-0.67
			L206.323,116.384z M207.221,124.867v2.637h-1.794v-2.637h-0.98l1.877-2.116l1.877,2.116H207.221L207.221,124.867z"/>
		<path fill="#FFFFFF" d="M224.351,112.204l-2.614-3.646c-0.286-0.396-0.729-0.694-1.356-0.694h-0.001h-14.086
			c-0.563,0-1.021,0.458-1.021,1.021v0.591c0,0.563,0.458,1.022,1.021,1.022h7.366v17.394c0,0.678,0.551,1.229,1.229,1.229h0.839
			c0.677,0,1.228-0.551,1.228-1.229v-8.52h0.608v8.52c0,0.678,0.55,1.229,1.228,1.229h0.84c0.677,0,1.228-0.551,1.228-1.229v-10.276
			h0.147c0.495,0,1.07-0.314,1.34-0.729l2.045-3.173C224.667,113.284,224.65,112.62,224.351,112.204z M220.856,111.31l1.078,1.548
			c0.132,0.188,0.131,0.533-0.004,0.724l-1.074,1.518V111.31z"/>
	</g>
</g>
<g>
	<g>
		<g>
			<path fill="#FFFFFF" d="M338.588,125.71h-3.279l-3.043-2.222c-0.298-0.216-0.711-0.153-0.926,0.143
				c-0.216,0.297-0.153,0.712,0.144,0.928l1.571,1.151h-1.049c-0.226,0-0.398,0.206-0.357,0.428l0.966,5.617
				c0.032,0.174,0.182,0.303,0.358,0.303h2.322h2.354c0.178,0,0.33-0.129,0.357-0.307l0.936-5.616
				C338.981,125.913,338.81,125.71,338.588,125.71z M335.271,127.674c-0.279,0.043-0.542-0.149-0.587-0.431
				c-0.015-0.109,0.006-0.215,0.052-0.309c0.071-0.144,0.213-0.253,0.383-0.277c0.19-0.028,0.375,0.05,0.483,0.193
				c0.054,0.067,0.091,0.148,0.104,0.238C335.746,127.369,335.555,127.629,335.271,127.674z"/>
			<path fill="#FFFFFF" d="M321.772,110.359c0.75,0,1.576-0.419,1.576-0.419c-0.389-0.228-0.589-0.681-0.686-1.136
				c0.407,0.679,1.116,1.123,1.917,1.123s1.51-0.444,1.917-1.123c-0.097,0.46-0.295,0.908-0.687,1.136c0,0,0.826,0.419,1.577,0.419
				c0.485,0,0.944-0.175,1.126-0.758c0.027-0.089-0.01-0.182-0.091-0.223c-0.271-0.146-0.866-0.566-0.866-1.434
				c0-1.123,0.281-4.521-2.978-4.521c-3.257,0-2.977,3.396-2.977,4.521c0,0.866-0.597,1.287-0.867,1.434
				c-0.082,0.044-0.117,0.139-0.09,0.223C320.828,110.179,321.287,110.359,321.772,110.359z"/>
			<path fill="#FFFFFF" d="M332.049,120.383c0.478-0.354,0.578-1.031,0.223-1.509l-5.166-6.945c-1.1-1.465-3.291-1.398-4.658-0.38
				c-0.004,0.002-4.28,3.187-4.28,3.187l-2.583-1.432v2.466l2.146,1.189c0.162,0.091,0.344,0.135,0.523,0.135
				c0.229,0,0.455-0.071,0.645-0.212l2.438-1.813v2.679l-2.58,7.199c-0.09,0.24,0.091,0.499,0.346,0.499h2.234v5.577
				c0,0.801,0.648,1.448,1.45,1.448c0.801,0,1.449-0.647,1.449-1.448v-5.583h0.697v5.576c0,0.802,0.649,1.449,1.45,1.449
				s1.448-0.647,1.448-1.449v-5.576h2.235c0.259,0,0.437-0.256,0.347-0.499l-2.582-7.2v-1.231l2.716,3.65
				c0.212,0.283,0.535,0.434,0.866,0.434C331.633,120.594,331.856,120.526,332.049,120.383z"/>
			<path fill="#FFFFFF" d="M314.99,125.028v-9.589v-0.816v-9.383c0-0.343-0.279-0.623-0.623-0.623c-0.343,0-0.623,0.28-0.623,0.623
				v19.716c0.155-0.031,0.315-0.047,0.477-0.047C314.48,124.909,314.744,124.95,314.99,125.028z"/>
			<path fill="#FFFFFF" d="M318.912,132.184c-1.029-0.515-1.868-1.516-1.868-2.858s-0.788-1.927-1.1-2.104
				c-0.378-0.146-0.817-0.247-1.292-0.288c-0.139-0.014-0.285-0.02-0.433-0.02c-0.063,0-0.129,0-0.19,0.003
				c-0.68,0.025-1.306,0.178-1.793,0.418c-0.733,0.489-0.671,1.539-0.671,1.539c0,3.332,2.505,4.074,4.732,4.074
				c0.981,0,1.912-0.144,2.548-0.274C319.093,132.627,319.135,132.296,318.912,132.184z"/>
			<path fill="#FFFFFF" d="M313.625,126.29c0.127-0.013,0.258-0.021,0.39-0.023c0.069-0.004,0.138-0.004,0.206-0.004
				c0.161,0,0.32,0.007,0.479,0.019c0.13,0.01,0.261,0.025,0.389,0.045c0.107,0.015,0.216,0.034,0.321,0.056
				c0.079,0.02,0.161,0.037,0.243,0.057c-0.045-0.095-0.092-0.182-0.145-0.259c-0.072-0.105-0.149-0.199-0.23-0.273
				c-0.062-0.057-0.128-0.104-0.196-0.138c-0.027-0.017-0.06-0.028-0.086-0.041c-0.244-0.105-0.507-0.162-0.771-0.162
				c-0.163,0-0.321,0.021-0.477,0.063c-0.101,0.025-0.199,0.061-0.296,0.104c-0.027,0.013-0.058,0.023-0.084,0.037
				c-0.068,0.033-0.139,0.084-0.204,0.144c-0.145,0.13-0.271,0.314-0.367,0.526c0.162-0.04,0.33-0.077,0.505-0.105
				C313.408,126.315,313.51,126.299,313.625,126.29z"/>
		</g>
	</g>
</g>
<g>
	<path fill="#FFFFFF" d="M-163.228,204.223c0.021,0.512,0.373,0.948,0.868,1.08l11.845,3.139c0.281,0.074,0.57,0.111,0.856,0.111
		c0.37,0,0.738-0.062,1.093-0.184l15.979-5.498c0.494-0.17,0.816-0.646,0.787-1.17c-0.028-0.521-0.401-0.962-0.912-1.077
		l-2.039-0.457l-13.127,4.517c-0.574,0.197-1.173,0.299-1.781,0.299c-0.471,0-0.941-0.063-1.399-0.184l-9.332-2.473l-2.066,0.744
		C-162.937,203.246-163.251,203.712-163.228,204.223z"/>
	<path fill="#FFFFFF" d="M-163.228,198.533c0.021,0.511,0.375,0.948,0.869,1.08l11.844,3.139c0.281,0.074,0.57,0.111,0.856,0.111
		c0.37,0,0.738-0.061,1.093-0.183l15.979-5.498c0.494-0.17,0.816-0.648,0.787-1.17c-0.029-0.523-0.401-0.964-0.912-1.077
		l-2.039-0.458l-13.127,4.517c-0.574,0.198-1.174,0.298-1.781,0.298c-0.471,0-0.941-0.061-1.399-0.182l-9.332-2.473l-2.066,0.743
		C-162.937,197.555-163.251,198.022-163.228,198.533z"/>
	<path fill="#FFFFFF" d="M-147.876,193.303c-0.574,0.196-1.173,0.297-1.781,0.297c-0.471,0-0.941-0.062-1.399-0.183l-9.332-2.473
		l-2.066,0.745c-0.479,0.173-0.795,0.64-0.771,1.15c0.021,0.512,0.375,0.948,0.869,1.08l11.844,3.14
		c0.281,0.073,0.57,0.11,0.857,0.11c0.369,0,0.737-0.061,1.092-0.183l15.979-5.498c0.494-0.171,0.816-0.648,0.787-1.171
		c-0.029-0.523-0.401-0.962-0.912-1.076l-2.039-0.458L-147.876,193.303z"/>
	<path fill="#FFFFFF" d="M-162.359,188.231l11.845,3.139c0.281,0.074,0.57,0.111,0.856,0.111c0.37,0,0.738-0.062,1.093-0.184
		l15.979-5.498c0.494-0.17,0.816-0.647,0.787-1.171c-0.028-0.521-0.401-0.961-0.912-1.075l-13.194-2.961
		c-0.243-0.055-0.489-0.08-0.734-0.08c-0.387,0-0.771,0.064-1.137,0.196l-14.681,5.29c-0.479,0.173-0.795,0.641-0.771,1.151
		C-163.206,187.663-162.854,188.099-162.359,188.231z"/>
</g>
<g>
	<g>
		<g>
			<path fill="#FFFFFF" d="M-38.737,186.744h11.32c1.044,0,1.888-0.844,1.888-1.887v-3.773c0-1.044-0.844-1.888-1.888-1.888h-11.32
				c-1.044,0-1.888,0.845-1.888,1.888v3.773C-40.624,185.9-39.781,186.744-38.737,186.744z"/>
			<path fill="#FFFFFF" d="M-27.416,199.952h-11.32c-1.044,0-1.888,0.844-1.888,1.887v5.661c0,1.044,0.844,1.888,1.888,1.888h11.32
				c1.044,0,1.888-0.844,1.888-1.888v-5.661C-25.529,200.796-26.372,199.952-27.416,199.952z M-28.359,207.5h-9.436
				c-0.521,0-0.942-0.422-0.942-0.942c0-0.522,0.422-0.943,0.942-0.943h9.436c0.52,0,0.942,0.421,0.942,0.943
				C-27.416,207.078-27.84,207.5-28.359,207.5z M-28.359,203.726h-9.436c-0.521,0-0.942-0.422-0.942-0.944
				c0-0.521,0.422-0.943,0.942-0.943h9.436c0.52,0,0.942,0.423,0.942,0.943C-27.416,203.304-27.84,203.726-28.359,203.726z"/>
			<path fill="#FFFFFF" d="M-19.868,184.857h-3.773v1.887c0,1.044-0.843,1.888-1.887,1.888h-15.096
				c-1.044,0-1.887-0.844-1.887-1.888v-1.887h-3.773c-1.045,0-1.888,0.845-1.888,1.887v13.208c0,1.043,0.843,1.887,1.888,1.887
				h3.773v-1.887c0-1.043,0.843-1.887,1.887-1.887h15.096c1.044,0,1.887,0.844,1.887,1.887v1.887h3.773
				c1.043,0,1.888-0.844,1.888-1.887v-13.208C-17.981,185.702-18.825,184.857-19.868,184.857z M-27.416,194.292
				c-1.044,0-1.888-0.844-1.888-1.887c0-1.042,0.844-1.887,1.888-1.887s1.888,0.845,1.888,1.887
				C-25.529,193.448-26.372,194.292-27.416,194.292z M-21.755,194.292c-1.045,0-1.888-0.844-1.888-1.887
				c0-1.042,0.843-1.887,1.888-1.887c1.043,0,1.887,0.845,1.887,1.887C-19.868,193.448-20.712,194.292-21.755,194.292z"/>
		</g>
	</g>
</g>
<g>
	<g>
		<path fill="#FFFFFF" d="M101.571,200.675v-10.672l-7.326-4.278l0.003-7.802l-10.702,6.224v4.405l-7.326,4.637v11.444l9.763,5.688
			l5.081-3.016l6.427,3.713l10.902-6.387L101.571,200.675z M85.261,185.098l7.27-4.202l0.018,8.808l-7.286,4.273L85.261,185.098
			L85.261,185.098z M86.829,207.802v-8.223l13.028-7.625v7.732l-1.949-1.163L87.02,204.89l2.385,1.398L86.829,207.802z
			 M90.222,204.913l7.731-4.524l7.271,4.233l-7.857,4.443L90.222,204.913z"/>
		<path fill="#FFFFFF" d="M88.671,201.561l1.521-0.904c0.406-0.242,0.539-0.77,0.297-1.176c-0.241-0.407-0.768-0.54-1.174-0.298
			l-1.521,0.905c-0.406,0.241-0.541,0.77-0.299,1.176C87.737,201.67,88.264,201.804,88.671,201.561z"/>
	</g>
</g>
<g>
	<g>
		<circle fill="#FFFFFF" cx="219.195" cy="181.986" r="3.881"/>
		<path fill="#FFFFFF" d="M211.222,202.498v-0.959c0-0.774,0.378-1.522,0.998-2.002v-3.275h-3.583c-1.386,0-2.498-1.094-2.498-2.477
			c0-0.228,0.102-0.414,0.102-0.623v-0.887h0.417c0.46-0.665,1.175-0.997,1.979-0.997h3.283c0.036-0.166,0.134-0.223,0.134-0.354
			v-8.89c0-0.742-0.687-1.389-1.427-1.389H199.56c-0.742,0-1.293,0.646-1.293,1.389v8.891c0,0.742,0.551,1.352,1.293,1.352h4.521
			v1.161h-1.521c-0.667,0-1.208,0.498-1.208,1.329h-5.168c-0.345,0-0.576,0.193-0.576,0.538v1.406c0,0.343,0.23,0.546,0.576,0.546
			h1.749v12.624h14.616v-5.686C212.552,204.197,211.222,203.916,211.222,202.498z M201.513,190.282
			c-0.741,0-1.419-0.529-1.419-1.271v-5.063c0-0.742,0.678-1.31,1.419-1.31h7.197c0.742,0,1.351,0.566,1.351,1.31v5.063
			c0,0.74-0.606,1.271-1.351,1.271H201.513z"/>
		<path fill="#FFFFFF" d="M221.781,186.511h-5.136c-3.146,0-3.347,3.151-3.347,3.151s-0.42,2.124-0.771,2.368
			c-0.106,0.075-0.232,0.129-0.38,0.129h-3.517c-0.831,0-1.506,0.662-1.506,1.496c0,0.832,0.675,1.494,1.506,1.494h3.517
			c0.546,0,1.028,0.002,1.093-0.016l-0.031,3.669h1.997v-8.117c0-1.637,1.055-3.511,2.706-3.511h6.123
			C223.427,186.677,222.638,186.511,221.781,186.511z"/>
		<path fill="#FFFFFF" d="M225.657,203.072c1.107,0,2.01-0.899,2.01-2.011v-10.309c0-1.241-1.052-2.299-2.291-2.299h-6.958
			c-1.239,0-2.211,1.058-2.211,2.299v9.162h-2.242c-0.862,0-1.578,0.664-1.578,1.525v0.564c0,0.587,0.476,1.063,1.063,1.063h4.752
			v1.327h-0.761c0,0-1.896,0.046-1.896,1.81v2.531c0,0.568,0.427,1.034,1,1.034c0.572,0,1.021-0.47,1.021-1.04l-0.016-2.341h3.476
			v2.347c0,0.568,0.505,1.034,1.079,1.034s1.08-0.466,1.08-1.034v-2.531c0-1.916-2.037-1.81-2.037-1.81h-0.789v-1.327h5.301v0.004
			H225.657z"/>
	</g>
</g>
<g>
	<g>
		<g>
			<path fill="#FFFFFF" d="M323.491,197.143c-0.063-0.075-0.156-0.12-0.256-0.123c-0.1-0.005-0.193,0.031-0.265,0.101l-0.948,0.938
				l0,0c-0.569,0.305-2.481,1.325-2.553,1.364c-3.418,1.918-6.305,8.729-6.694,9.902c-0.083,0.247-0.128,0.51-0.136,0.78
				c-0.003,0.096,0.034,0.188,0.102,0.258c0.065,0.069,0.158,0.107,0.255,0.107h10.316c0.179,0,0.329-0.132,0.354-0.308
				l1.484-10.907c0.015-0.102-0.017-0.203-0.082-0.279L323.491,197.143z"/>
			<path fill="#FFFFFF" d="M337.832,209.317c-0.39-1.174-3.276-7.984-6.701-9.905l-2.482-1.347l-0.961-0.944
				c-0.069-0.069-0.165-0.104-0.264-0.101c-0.098,0.004-0.19,0.048-0.255,0.123l-1.577,1.834c-0.066,0.076-0.098,0.179-0.083,0.278
				l1.487,10.907c0.024,0.176,0.174,0.308,0.352,0.308h10.264c0.098,0,0.189-0.038,0.257-0.107c0.065-0.068,0.104-0.161,0.102-0.257
				C337.961,209.835,337.916,209.569,337.832,209.317z"/>
			<path fill="#FFFFFF" d="M331.444,188.04c0.039-3.777-1.761-6.038-6.142-6.038s-6.178,2.261-6.142,6.038
				c0.059,5.441,2.657,8.688,6.142,8.688C328.788,196.727,331.386,193.481,331.444,188.04z"/>
		</g>
	</g>
</g>
<g>
	<g>
		<g>
			<path fill="#FFFFFF" d="M-145.004,263.277c-4.576,0-8.291,3.708-8.291,8.291c0,2.79,1.387,5.245,3.503,6.747h9.579
				c2.111-1.502,3.5-3.957,3.5-6.747C-136.711,266.988-140.424,263.277-145.004,263.277z M-145.008,276.919
				c-0.479,0-0.865-1.439-0.865-3.216c0-1.775,0.386-3.218,0.865-3.218c0.484,0,0.877,1.439,0.877,3.218
				C-144.129,275.479-144.521,276.919-145.008,276.919z"/>
			<path fill="#FFFFFF" d="M-149.766,285.153h2.244c0.299,0.702,1.287,1.233,2.517,1.233c1.231,0,2.218-0.531,2.518-1.233h2.247
				v-5.865h-9.524L-149.766,285.153L-149.766,285.153z M-148.724,280.53h7.439v1.051h-7.439V280.53z M-148.724,282.634h7.439v1.055
				h-7.439V282.634z"/>
			<path fill="#FFFFFF" d="M-146.055,256.131h2.105v4.949h-2.105V256.131z M-156.924,261.918l1.486-1.489l3.502,3.495l-1.485,1.49
				L-156.924,261.918z M-138.072,263.926l3.502-3.5l1.487,1.488l-3.502,3.501L-138.072,263.926z"/>
		</g>
	</g>
</g>
<g>
	<path fill="none" stroke="#FFFFFF" stroke-miterlimit="10" d="M-22.344,260.564l-0.354-2.447c-0.107-0.75-0.802-1.271-1.552-1.171
		l-4.422,0.596c-0.09-0.081-0.188-0.151-0.299-0.209c-0.262-0.135-0.507-0.25-0.752-0.353c-1.351-0.563-2.885-0.85-4.563-0.85
		c-1.414,0-2.731,0.234-3.919,0.697c-1.238,0.486-2.272,1.223-3.075,2.191c-0.84,1.013-1.479,2.05-1.722,3.085
		c-0.266,1.136-0.499,2.588-0.499,4.2v7.739c0,2.226,0.319,4.117,0.743,5.476c0.443,1.418,1.42,2.604,2.808,3.525
		c0.993,0.661,2.16,1.089,3.435,1.279c0.065,0.524,0.19,0.942,0.355,1.28c0.355,0.727,0.996,2.226,1.791,2.518
		c0.765,0.282,1.861,1.376,3.084,1.376h5.01c0.764,0,1.774-2.496,1.774-3.258v-3.07c0-0.763-1.012-0.671-1.774-0.671h-0.679
		c0.819,0,1.588-1.849,1.901-2.939c0.25-0.883,0.552-2.706,0.552-5.267v-5.871c0-0.142-0.22-0.279-0.261-0.412
		c0.309-0.225,0.505-0.47,0.779-0.737c0.881-0.857,1.406-1.868,1.656-3.002C-22.093,263.226-22.133,262.013-22.344,260.564z
		 M-34.5,264.475v11.483c0,0.393,0.274,1.403,0.233,1.997c-0.064,0.006-0.102,0.002-0.169-0.007
		c-0.041-0.358-0.063-0.942-0.063-1.804L-34.5,264.475c0.001-0.648,0.162-0.387,0.201-0.64c0.066-0.01,0.232,0.664,0.273,0.664
		c0.008,0-0.015,0-0.007,0C-34.015,264.5-34.5,263.819-34.5,264.475z"/>
	<path fill="#FFFFFF" d="M-28.719,259.026l0.773,5.352l1.177-0.157c0,0.65-0.317,1.21-0.956,1.675l0.286,1.975
		c0.941-0.334,1.757-0.837,2.444-1.509c0.688-0.671,1.129-1.441,1.321-2.313c0.193-0.867,0.196-1.938,0.012-3.21l-0.354-2.446
		L-28.719,259.026z"/>
	<path fill="#FFFFFF" d="M-29.974,283.351c-0.21-0.146-0.329-0.712-0.36-1.27c1.062-0.247,1.908-0.713,2.546-1.182
		c0.639-0.469,1.146-1.155,1.373-1.948c0.226-0.793,0.416-2.357,0.416-4.582v-5.87c0,0.035-0.265,0.073-0.36,0.107
		c-0.15,0.053-0.347,0.079-0.501,0.079c-0.248,0-0.517-0.067-0.733-0.198c-0.355-0.214-0.605-0.575-0.664-0.984l-0.291-1.975
		c-0.039-0.274,0.002-0.55,0.117-0.792c-0.178-0.195-0.301-0.444-0.342-0.726l-0.772-5.353c-0.002-0.008-0.002-0.016-0.004-0.021
		c-0.207-0.106-0.422-0.21-0.651-0.307c-1.185-0.494-2.523-0.742-4.031-0.742c-1.25,0-2.39,0.201-3.414,0.603
		c-1.025,0.401-1.863,0.998-2.519,1.786c-0.649,0.788-1.196,1.627-1.403,2.518c-0.209,0.893-0.431,2.187-0.431,3.886v7.741
		c0,2.246,0.292,3.934,0.646,5.063c0.353,1.129,1.138,2.058,2.238,2.789c1.103,0.73,2.447,1.116,3.975,1.159
		c0,0.936,0.102,1.581,0.279,1.941c0.177,0.361,0.521,1.048,1.025,1.233c0.5,0.186,1.376,0.691,2.604,0.691H-26v-3h-2.483
		C-29.267,284-29.763,283.494-29.974,283.351z M-32,276.037c0,1.472-0.285,2.403-0.414,2.794c-0.127,0.393-0.998,0.587-1.453,0.587
		c-0.444,0-1.014-0.169-1.135-0.509c-0.123-0.34,0.001-1.235,0.001-2.686v-11.671c0-1.287-0.147-2.063,0.038-2.323
		c0.187-0.264,0.801-0.394,1.153-0.394c0.412,0,1.315,0.16,1.449,0.484c0.131,0.324,0.359,1.068,0.359,2.23L-32,276.037L-32,276.037
		z"/>
</g>
</svg>
