<?xml version="1.0" encoding="utf-8"?>
<!-- Generator: Adobe Illustrator 15.0.0, SVG Export Plug-In . SVG Version: 6.00 Build 0)  -->
<!DOCTYPE svg PUBLIC "-//W3C//DTD SVG 1.1//EN" "http://www.w3.org/Graphics/SVG/1.1/DTD/svg11.dtd">
<svg version="1.1" id="Capa_1" xmlns="http://www.w3.org/2000/svg" xmlns:xlink="http://www.w3.org/1999/xlink" x="0px" y="0px"
	 width="296.327px" height="100px" viewBox="0 0 296.327 100" enable-background="new 0 0 296.327 100" xml:space="preserve">
<g>
	<path fill="#FFFFFF" d="M106.048,62.803h-6.237l4.838-32.316h6.238L106.048,62.803z"/>
	<path fill="#FFFFFF" d="M134.302,62.803h-6.259l-7.169-20.62h-0.133l-3.085,20.62h-6.26l4.838-32.316h6.26l7.17,20.642h0.133
		l3.084-20.642h6.26L134.302,62.803z"/>
	<path fill="#FFFFFF" d="M162.18,35.392h-7.591l-4.106,27.411h-6.281l4.106-27.411h-7.391l0.731-4.905h21.264L162.18,35.392z"/>
	<path fill="#FFFFFF" d="M169.326,49.841l-1.931,12.962h-6.259l4.838-32.294h9.678c3.092,0,5.463,0.847,7.113,2.542
		c1.65,1.694,2.252,4.013,1.809,6.958c-0.266,1.762-0.873,3.241-1.82,4.439c-0.947,1.198-2.227,2.153-3.839,2.863
		c1.554,0.577,2.614,1.524,3.185,2.841c0.569,1.317,0.722,2.923,0.455,4.816l-0.355,2.353c-0.147,0.932-0.188,1.887-0.121,2.863
		c0.066,0.977,0.328,1.694,0.787,2.152l-0.066,0.467h-6.48c-0.43-0.473-0.641-1.246-0.633-2.319
		c0.007-1.073,0.092-2.142,0.256-3.208l0.354-2.264c0.251-1.701,0.106-2.988-0.433-3.861c-0.541-0.873-1.454-1.31-2.742-1.31
		H169.326z M170.059,44.958h3.396c1.302,0,2.37-0.407,3.207-1.221c0.836-0.813,1.372-1.953,1.609-3.418
		c0.236-1.568,0.073-2.782-0.488-3.64c-0.563-0.857-1.518-1.287-2.863-1.287h-3.418L170.059,44.958z"/>
	<path fill="#FFFFFF" d="M201.62,55.811h-8.079l-2.885,6.992h-6.525l14.006-32.316h6.48l4.328,32.316h-6.548L201.62,55.811z
		 M195.562,50.884h5.505l-1.154-10.21l-0.134-0.021L195.562,50.884z"/>
	<path fill="#FFFFFF" d="M234.447,62.803h-6.259l-7.169-20.62h-0.133l-3.086,20.62h-6.259l4.839-32.316h6.259l7.169,20.642h0.133
		l3.086-20.642h6.259L234.447,62.803z"/>
	<path fill="#FFFFFF" d="M257.686,48.531h-9.877l-1.397,9.389h11.829l-0.732,4.883h-18.089l4.839-32.316h18.045l-0.732,4.905
		h-11.785l-1.244,8.256h9.877L257.686,48.531z"/>
	<path fill="#FFFFFF" d="M285.031,35.392h-7.592l-4.105,27.411h-6.281l4.105-27.411h-7.391l0.732-4.905h21.263L285.031,35.392z"/>
</g>
<polygon fill="#B82025" points="81.063,100 11.063,100 28.063,0 98.063,0 "/>
<g>
	<image overflow="visible" opacity="0.75" width="63" height="77" xlink:href="EC119679.png"  transform="matrix(1 0 0 1 23 11.5)">
	</image>
	<g>
		<g>
			<path fill-rule="evenodd" clip-rule="evenodd" fill="#FFFFFF" d="M61.344,24.719l-16.404,5.61c0,0,0,0-0.877-1.09
				c0,0,0,0,11.912-11.91c1.918-1.921,5.779-1.437,7.152,0.895C64.367,20.324,63.888,23.848,61.344,24.719L61.344,24.719z"/>
			<path fill-rule="evenodd" clip-rule="evenodd" fill="#FFFFFF" d="M51.901,34.456c13.763,0,25.458,9.979,25.458,24.156
				c0,14.018-12.732,21.327-25.458,21.327c-13.098,0-24.808-8.672-24.808-22.414C27.094,44.161,39.059,34.456,51.901,34.456
				L51.901,34.456L51.901,34.456z M51.901,39.247c7.615,0,13.053,8.486,13.053,18.278c0,9.79-5.438,18.277-13.053,18.277
				c-6.747,0-12.838-8.487-12.838-18.277C39.063,47.733,45.154,39.247,51.901,39.247L51.901,39.247L51.901,39.247z"/>
		</g>
	</g>
</g>
</svg>
